# xmcd
#
# Track frame offsets: 
#        187
#        12087
#        25765
#        43880
#        57302
#        74760
#        92202
#        115565
#        127735
#        143010
#        160250
#
# Disc length: 2287 seconds
#
# Revision: 4
# Processed by: cddbd v1.5.2PL0 Copyright (c) Steve Scherf et al.
# Submitted via: ExactAudioCopyFreeDBPlugin 1.0
#
DISCID=8e08ed0b
DTITLE=Foster and Lloyd - Version Of The Truth
DYEAR=1990
DGENRE=Country
TTITLE0=Is It Love
TTITLE1=Version Of The Truth
TTITLE2=I Wishdaida Run Into You
TTITLE3=Leavin' In Your Eyes
TTITLE4=Side Of The Road
TTITLE5=It's A Done Deal
TTITLE6=Lonesome Run
TTITLE7=It's Over
TTITLE8=All Said And Done
TTITLE9=Workin' On Me
TTITLE10=Whoa
EXTD=YEAR: 1990
EXTT0=
EXTT1=
EXTT2=
EXTT3=
EXTT4=
EXTT5=
EXTT6=
EXTT7=
EXTT8=
EXTT9=
EXTT10=
PLAYORDER=
